<mxfile host="app.diagrams.net" agent="Mozilla/5.0 (Macintosh; Intel Mac OS X 10_15_7) AppleWebKit/537.36 (KHTML, like Gecko) Chrome/119.0.0.0 Safari/537.36" version="24.7.6">
  <diagram name="第 1 页" id="Ex8wB0dCb8D3xpkgbztv">
    <mxGraphModel dx="2261" dy="786" grid="1" gridSize="10" guides="1" tooltips="1" connect="1" arrows="1" fold="1" page="1" pageScale="1" pageWidth="827" pageHeight="1169" math="0" shadow="0">
      <root>
        <mxCell id="0" />
        <mxCell id="1" parent="0" />
        <mxCell id="I2vAZ1yeuEtwXwnU4CiW-6" value="DolphinScheduler" style="rounded=1;whiteSpace=wrap;html=1;" vertex="1" parent="1">
          <mxGeometry x="180" y="480" width="190" height="60" as="geometry" />
        </mxCell>
        <mxCell id="I2vAZ1yeuEtwXwnU4CiW-22" style="edgeStyle=orthogonalEdgeStyle;rounded=0;orthogonalLoop=1;jettySize=auto;html=1;exitX=0;exitY=0.5;exitDx=0;exitDy=0;entryX=1;entryY=0.5;entryDx=0;entryDy=0;" edge="1" parent="1" source="I2vAZ1yeuEtwXwnU4CiW-7" target="I2vAZ1yeuEtwXwnU4CiW-6">
          <mxGeometry relative="1" as="geometry" />
        </mxCell>
        <mxCell id="I2vAZ1yeuEtwXwnU4CiW-7" value="Dispatcher" style="rounded=1;whiteSpace=wrap;html=1;" vertex="1" parent="1">
          <mxGeometry x="760" y="370" width="80" height="60" as="geometry" />
        </mxCell>
        <mxCell id="I2vAZ1yeuEtwXwnU4CiW-9" value="WebApp(php)" style="rounded=1;whiteSpace=wrap;html=1;" vertex="1" parent="1">
          <mxGeometry x="760" y="120" width="80" height="190" as="geometry" />
        </mxCell>
        <mxCell id="I2vAZ1yeuEtwXwnU4CiW-26" style="edgeStyle=orthogonalEdgeStyle;rounded=0;orthogonalLoop=1;jettySize=auto;html=1;exitX=0.75;exitY=0;exitDx=0;exitDy=0;entryX=1;entryY=0.25;entryDx=0;entryDy=0;" edge="1" parent="1" source="I2vAZ1yeuEtwXwnU4CiW-10" target="I2vAZ1yeuEtwXwnU4CiW-11">
          <mxGeometry relative="1" as="geometry" />
        </mxCell>
        <mxCell id="I2vAZ1yeuEtwXwnU4CiW-27" value="查询" style="edgeLabel;html=1;align=center;verticalAlign=middle;resizable=0;points=[];" vertex="1" connectable="0" parent="I2vAZ1yeuEtwXwnU4CiW-26">
          <mxGeometry x="0.1019" y="-2" relative="1" as="geometry">
            <mxPoint as="offset" />
          </mxGeometry>
        </mxCell>
        <mxCell id="I2vAZ1yeuEtwXwnU4CiW-30" value="日志获取" style="edgeLabel;html=1;align=center;verticalAlign=middle;resizable=0;points=[];" vertex="1" connectable="0" parent="I2vAZ1yeuEtwXwnU4CiW-26">
          <mxGeometry x="-0.4792" y="4" relative="1" as="geometry">
            <mxPoint as="offset" />
          </mxGeometry>
        </mxCell>
        <mxCell id="I2vAZ1yeuEtwXwnU4CiW-10" value="uda-DB" style="rounded=1;whiteSpace=wrap;html=1;" vertex="1" parent="1">
          <mxGeometry x="440" y="470" width="360" height="60" as="geometry" />
        </mxCell>
        <mxCell id="I2vAZ1yeuEtwXwnU4CiW-28" style="edgeStyle=orthogonalEdgeStyle;rounded=0;orthogonalLoop=1;jettySize=auto;html=1;exitX=0.5;exitY=1;exitDx=0;exitDy=0;entryX=0.5;entryY=0;entryDx=0;entryDy=0;" edge="1" parent="1" source="I2vAZ1yeuEtwXwnU4CiW-11" target="I2vAZ1yeuEtwXwnU4CiW-6">
          <mxGeometry relative="1" as="geometry" />
        </mxCell>
        <mxCell id="I2vAZ1yeuEtwXwnU4CiW-29" value="作业定义" style="edgeLabel;html=1;align=center;verticalAlign=middle;resizable=0;points=[];" vertex="1" connectable="0" parent="I2vAZ1yeuEtwXwnU4CiW-28">
          <mxGeometry x="-0.1333" relative="1" as="geometry">
            <mxPoint as="offset" />
          </mxGeometry>
        </mxCell>
        <mxCell id="I2vAZ1yeuEtwXwnU4CiW-11" value="UDAAPI" style="rounded=1;whiteSpace=wrap;html=1;" vertex="1" parent="1">
          <mxGeometry x="190" y="320" width="390" height="60" as="geometry" />
        </mxCell>
        <mxCell id="I2vAZ1yeuEtwXwnU4CiW-12" value="平台" style="rounded=1;whiteSpace=wrap;html=1;" vertex="1" parent="1">
          <mxGeometry x="260" y="130" width="390" height="60" as="geometry" />
        </mxCell>
        <mxCell id="I2vAZ1yeuEtwXwnU4CiW-13" value="日志同步" style="text;html=1;align=center;verticalAlign=middle;resizable=0;points=[];autosize=1;strokeColor=none;fillColor=none;" vertex="1" parent="1">
          <mxGeometry x="1206" y="660" width="70" height="30" as="geometry" />
        </mxCell>
        <mxCell id="I2vAZ1yeuEtwXwnU4CiW-14" value="状态双写&lt;br&gt;任务状态双写" style="text;html=1;align=center;verticalAlign=middle;resizable=0;points=[];autosize=1;strokeColor=none;fillColor=none;" vertex="1" parent="1">
          <mxGeometry y="403" width="100" height="40" as="geometry" />
        </mxCell>
        <mxCell id="I2vAZ1yeuEtwXwnU4CiW-15" value="状态（双写）、结果（直接写DB）、日志（维护一张表状态，日志拉取）" style="text;html=1;align=center;verticalAlign=middle;resizable=0;points=[];autosize=1;strokeColor=none;fillColor=none;" vertex="1" parent="1">
          <mxGeometry x="-10" y="590" width="410" height="30" as="geometry" />
        </mxCell>
        <mxCell id="I2vAZ1yeuEtwXwnU4CiW-36" value="" style="edgeStyle=orthogonalEdgeStyle;rounded=0;orthogonalLoop=1;jettySize=auto;html=1;" edge="1" parent="1" source="I2vAZ1yeuEtwXwnU4CiW-16" target="I2vAZ1yeuEtwXwnU4CiW-15">
          <mxGeometry relative="1" as="geometry" />
        </mxCell>
        <mxCell id="I2vAZ1yeuEtwXwnU4CiW-16" value="uda数据库是全集" style="text;html=1;align=center;verticalAlign=middle;resizable=0;points=[];autosize=1;strokeColor=none;fillColor=none;" vertex="1" parent="1">
          <mxGeometry x="490" y="598" width="120" height="30" as="geometry" />
        </mxCell>
        <mxCell id="I2vAZ1yeuEtwXwnU4CiW-18" style="edgeStyle=orthogonalEdgeStyle;rounded=0;orthogonalLoop=1;jettySize=auto;html=1;exitX=0.25;exitY=1;exitDx=0;exitDy=0;entryX=0.613;entryY=-0.017;entryDx=0;entryDy=0;entryPerimeter=0;" edge="1" parent="1" source="I2vAZ1yeuEtwXwnU4CiW-6">
          <mxGeometry relative="1" as="geometry">
            <mxPoint x="358.0799999999999" y="468.98" as="targetPoint" />
          </mxGeometry>
        </mxCell>
        <mxCell id="I2vAZ1yeuEtwXwnU4CiW-20" value="状态" style="edgeLabel;html=1;align=center;verticalAlign=middle;resizable=0;points=[];" vertex="1" connectable="0" parent="I2vAZ1yeuEtwXwnU4CiW-18">
          <mxGeometry x="-0.3856" y="-2" relative="1" as="geometry">
            <mxPoint as="offset" />
          </mxGeometry>
        </mxCell>
        <mxCell id="I2vAZ1yeuEtwXwnU4CiW-19" style="edgeStyle=orthogonalEdgeStyle;rounded=0;orthogonalLoop=1;jettySize=auto;html=1;exitX=0.75;exitY=1;exitDx=0;exitDy=0;entryX=0.365;entryY=-0.017;entryDx=0;entryDy=0;entryPerimeter=0;" edge="1" parent="1" source="I2vAZ1yeuEtwXwnU4CiW-6" target="I2vAZ1yeuEtwXwnU4CiW-10">
          <mxGeometry relative="1" as="geometry" />
        </mxCell>
        <mxCell id="I2vAZ1yeuEtwXwnU4CiW-21" value="状态、结果" style="edgeLabel;html=1;align=center;verticalAlign=middle;resizable=0;points=[];" vertex="1" connectable="0" parent="I2vAZ1yeuEtwXwnU4CiW-19">
          <mxGeometry x="-0.2789" y="3" relative="1" as="geometry">
            <mxPoint as="offset" />
          </mxGeometry>
        </mxCell>
        <mxCell id="I2vAZ1yeuEtwXwnU4CiW-24" style="edgeStyle=orthogonalEdgeStyle;rounded=0;orthogonalLoop=1;jettySize=auto;html=1;exitX=1;exitY=0.5;exitDx=0;exitDy=0;entryX=0.714;entryY=0.033;entryDx=0;entryDy=0;entryPerimeter=0;" edge="1" parent="1" source="I2vAZ1yeuEtwXwnU4CiW-11" target="I2vAZ1yeuEtwXwnU4CiW-10">
          <mxGeometry relative="1" as="geometry" />
        </mxCell>
        <mxCell id="I2vAZ1yeuEtwXwnU4CiW-25" value="作业定义" style="edgeLabel;html=1;align=center;verticalAlign=middle;resizable=0;points=[];" vertex="1" connectable="0" parent="I2vAZ1yeuEtwXwnU4CiW-24">
          <mxGeometry x="0.0461" relative="1" as="geometry">
            <mxPoint as="offset" />
          </mxGeometry>
        </mxCell>
        <mxCell id="I2vAZ1yeuEtwXwnU4CiW-31" style="edgeStyle=orthogonalEdgeStyle;rounded=0;orthogonalLoop=1;jettySize=auto;html=1;exitX=0.5;exitY=1;exitDx=0;exitDy=0;entryX=0.961;entryY=0;entryDx=0;entryDy=0;entryPerimeter=0;" edge="1" parent="1" source="I2vAZ1yeuEtwXwnU4CiW-7" target="I2vAZ1yeuEtwXwnU4CiW-10">
          <mxGeometry relative="1" as="geometry" />
        </mxCell>
        <mxCell id="I2vAZ1yeuEtwXwnU4CiW-32" value="作业调度" style="edgeLabel;html=1;align=center;verticalAlign=middle;resizable=0;points=[];" vertex="1" connectable="0" parent="I2vAZ1yeuEtwXwnU4CiW-31">
          <mxGeometry x="-0.4091" y="-2" relative="1" as="geometry">
            <mxPoint as="offset" />
          </mxGeometry>
        </mxCell>
        <mxCell id="I2vAZ1yeuEtwXwnU4CiW-39" value="" style="group" vertex="1" connectable="0" parent="1">
          <mxGeometry x="610" y="1090" width="200" height="120" as="geometry" />
        </mxCell>
        <mxCell id="I2vAZ1yeuEtwXwnU4CiW-38" value="DolphinScheduler" style="rounded=1;whiteSpace=wrap;html=1;" vertex="1" parent="I2vAZ1yeuEtwXwnU4CiW-39">
          <mxGeometry width="200" height="119.99999999999999" as="geometry" />
        </mxCell>
        <mxCell id="I2vAZ1yeuEtwXwnU4CiW-35" value="ds-DB" style="rounded=1;whiteSpace=wrap;html=1;" vertex="1" parent="I2vAZ1yeuEtwXwnU4CiW-39">
          <mxGeometry x="130.76923076923077" y="76.36363636363636" width="69.23076923076924" height="43.63636363636363" as="geometry" />
        </mxCell>
        <mxCell id="I2vAZ1yeuEtwXwnU4CiW-59" style="edgeStyle=orthogonalEdgeStyle;rounded=0;orthogonalLoop=1;jettySize=auto;html=1;exitX=0.5;exitY=1;exitDx=0;exitDy=0;" edge="1" parent="I2vAZ1yeuEtwXwnU4CiW-39" source="I2vAZ1yeuEtwXwnU4CiW-38" target="I2vAZ1yeuEtwXwnU4CiW-38">
          <mxGeometry relative="1" as="geometry" />
        </mxCell>
        <mxCell id="I2vAZ1yeuEtwXwnU4CiW-40" value="uda-DB" style="rounded=1;whiteSpace=wrap;html=1;" vertex="1" parent="1">
          <mxGeometry x="886" y="1090" width="424" height="120" as="geometry" />
        </mxCell>
        <mxCell id="I2vAZ1yeuEtwXwnU4CiW-60" style="edgeStyle=orthogonalEdgeStyle;rounded=0;orthogonalLoop=1;jettySize=auto;html=1;exitX=1;exitY=0.5;exitDx=0;exitDy=0;entryX=0;entryY=0.5;entryDx=0;entryDy=0;" edge="1" parent="1" source="I2vAZ1yeuEtwXwnU4CiW-42" target="I2vAZ1yeuEtwXwnU4CiW-56">
          <mxGeometry relative="1" as="geometry" />
        </mxCell>
        <mxCell id="I2vAZ1yeuEtwXwnU4CiW-61" value="日志获取" style="edgeLabel;html=1;align=center;verticalAlign=middle;resizable=0;points=[];" vertex="1" connectable="0" parent="I2vAZ1yeuEtwXwnU4CiW-60">
          <mxGeometry x="-0.2" relative="1" as="geometry">
            <mxPoint as="offset" />
          </mxGeometry>
        </mxCell>
        <mxCell id="I2vAZ1yeuEtwXwnU4CiW-42" value="UDAAPI" style="rounded=1;whiteSpace=wrap;html=1;" vertex="1" parent="1">
          <mxGeometry x="610" y="850" width="440" height="140" as="geometry" />
        </mxCell>
        <mxCell id="I2vAZ1yeuEtwXwnU4CiW-43" style="edgeStyle=orthogonalEdgeStyle;rounded=0;orthogonalLoop=1;jettySize=auto;html=1;exitX=1;exitY=0.5;exitDx=0;exitDy=0;entryX=0;entryY=0.5;entryDx=0;entryDy=0;" edge="1" parent="1" source="I2vAZ1yeuEtwXwnU4CiW-38" target="I2vAZ1yeuEtwXwnU4CiW-40">
          <mxGeometry relative="1" as="geometry" />
        </mxCell>
        <mxCell id="I2vAZ1yeuEtwXwnU4CiW-44" value="状态双写" style="edgeLabel;html=1;align=center;verticalAlign=middle;resizable=0;points=[];" vertex="1" connectable="0" parent="I2vAZ1yeuEtwXwnU4CiW-43">
          <mxGeometry x="-0.0263" y="-3" relative="1" as="geometry">
            <mxPoint as="offset" />
          </mxGeometry>
        </mxCell>
        <mxCell id="I2vAZ1yeuEtwXwnU4CiW-45" style="edgeStyle=orthogonalEdgeStyle;rounded=0;orthogonalLoop=1;jettySize=auto;html=1;exitX=0.25;exitY=1;exitDx=0;exitDy=0;entryX=0.528;entryY=0;entryDx=0;entryDy=0;entryPerimeter=0;" edge="1" parent="1" source="I2vAZ1yeuEtwXwnU4CiW-42" target="I2vAZ1yeuEtwXwnU4CiW-38">
          <mxGeometry relative="1" as="geometry" />
        </mxCell>
        <mxCell id="I2vAZ1yeuEtwXwnU4CiW-46" value="作业定义" style="edgeLabel;html=1;align=center;verticalAlign=middle;resizable=0;points=[];" vertex="1" connectable="0" parent="I2vAZ1yeuEtwXwnU4CiW-45">
          <mxGeometry x="-0.1209" y="-3" relative="1" as="geometry">
            <mxPoint as="offset" />
          </mxGeometry>
        </mxCell>
        <mxCell id="I2vAZ1yeuEtwXwnU4CiW-47" style="edgeStyle=orthogonalEdgeStyle;rounded=0;orthogonalLoop=1;jettySize=auto;html=1;exitX=0.75;exitY=1;exitDx=0;exitDy=0;entryX=0.178;entryY=0.025;entryDx=0;entryDy=0;entryPerimeter=0;" edge="1" parent="1" source="I2vAZ1yeuEtwXwnU4CiW-42" target="I2vAZ1yeuEtwXwnU4CiW-40">
          <mxGeometry relative="1" as="geometry" />
        </mxCell>
        <mxCell id="I2vAZ1yeuEtwXwnU4CiW-48" value="任务/作业定义" style="edgeLabel;html=1;align=center;verticalAlign=middle;resizable=0;points=[];" vertex="1" connectable="0" parent="I2vAZ1yeuEtwXwnU4CiW-47">
          <mxGeometry x="0.0421" y="1" relative="1" as="geometry">
            <mxPoint as="offset" />
          </mxGeometry>
        </mxCell>
        <mxCell id="I2vAZ1yeuEtwXwnU4CiW-57" value="" style="group" vertex="1" connectable="0" parent="1">
          <mxGeometry x="1160" y="850" width="145" height="140" as="geometry" />
        </mxCell>
        <mxCell id="I2vAZ1yeuEtwXwnU4CiW-56" value="" style="rounded=1;whiteSpace=wrap;html=1;" vertex="1" parent="I2vAZ1yeuEtwXwnU4CiW-57">
          <mxGeometry width="145" height="140" as="geometry" />
        </mxCell>
        <mxCell id="I2vAZ1yeuEtwXwnU4CiW-49" value="WebApp(php)" style="rounded=1;whiteSpace=wrap;html=1;" vertex="1" parent="I2vAZ1yeuEtwXwnU4CiW-57">
          <mxGeometry x="20.13888888888889" y="24.255000000000024" width="104.72222222222223" height="39.91166666666667" as="geometry" />
        </mxCell>
        <mxCell id="I2vAZ1yeuEtwXwnU4CiW-50" value="Dispatcher" style="rounded=1;whiteSpace=wrap;html=1;" vertex="1" parent="I2vAZ1yeuEtwXwnU4CiW-57">
          <mxGeometry x="20.13888888888889" y="75.83333333333334" width="104.72222222222223" height="40.3725" as="geometry" />
        </mxCell>
        <mxCell id="I2vAZ1yeuEtwXwnU4CiW-67" value="" style="group;sketch=1;curveFitting=1;jiggle=2;fillColor=#f5f5f5;fontColor=#333333;strokeColor=#666666;" vertex="1" connectable="0" parent="1">
          <mxGeometry x="600" y="1380" width="690" height="150" as="geometry" />
        </mxCell>
        <mxCell id="I2vAZ1yeuEtwXwnU4CiW-65" value="" style="rounded=1;whiteSpace=wrap;html=1;sketch=1;curveFitting=1;jiggle=2;fillColor=#f5f5f5;fontColor=#333333;strokeColor=#666666;" vertex="1" parent="I2vAZ1yeuEtwXwnU4CiW-67">
          <mxGeometry width="690" height="150" as="geometry" />
        </mxCell>
        <mxCell id="I2vAZ1yeuEtwXwnU4CiW-62" value="UDA-Api" style="rounded=1;whiteSpace=wrap;html=1;sketch=1;curveFitting=1;jiggle=2;fillColor=#d5e8d4;strokeColor=#82b366;" vertex="1" parent="I2vAZ1yeuEtwXwnU4CiW-67">
          <mxGeometry x="50" y="30" width="190" height="90" as="geometry" />
        </mxCell>
        <mxCell id="I2vAZ1yeuEtwXwnU4CiW-63" value="UDA-WebApp" style="rounded=1;whiteSpace=wrap;html=1;sketch=1;curveFitting=1;jiggle=2;fillColor=#f8cecc;strokeColor=#b85450;" vertex="1" parent="I2vAZ1yeuEtwXwnU4CiW-67">
          <mxGeometry x="250" y="30" width="190" height="90" as="geometry" />
        </mxCell>
        <mxCell id="I2vAZ1yeuEtwXwnU4CiW-64" value="UDA-Dispatcher" style="rounded=1;whiteSpace=wrap;html=1;sketch=1;curveFitting=1;jiggle=2;fillColor=#f8cecc;strokeColor=#b85450;" vertex="1" parent="I2vAZ1yeuEtwXwnU4CiW-67">
          <mxGeometry x="450" y="30" width="190" height="90" as="geometry" />
        </mxCell>
        <mxCell id="I2vAZ1yeuEtwXwnU4CiW-68" value="uda-DB" style="rounded=1;whiteSpace=wrap;html=1;sketch=1;curveFitting=1;jiggle=2;fillColor=#d5e8d4;strokeColor=#82b366;" vertex="1" parent="1">
          <mxGeometry x="980" y="1630" width="310" height="120" as="geometry" />
        </mxCell>
        <mxCell id="I2vAZ1yeuEtwXwnU4CiW-69" value="" style="group;rounded=0;sketch=1;curveFitting=1;jiggle=2;" vertex="1" connectable="0" parent="1">
          <mxGeometry x="600" y="1630" width="300" height="120" as="geometry" />
        </mxCell>
        <mxCell id="I2vAZ1yeuEtwXwnU4CiW-70" value="DolphinScheduler" style="rounded=1;whiteSpace=wrap;html=1;sketch=1;curveFitting=1;jiggle=2;fillColor=#d5e8d4;strokeColor=#82b366;" vertex="1" parent="I2vAZ1yeuEtwXwnU4CiW-69">
          <mxGeometry width="300" height="120" as="geometry" />
        </mxCell>
        <mxCell id="I2vAZ1yeuEtwXwnU4CiW-71" value="ds-DB" style="rounded=1;whiteSpace=wrap;html=1;sketch=1;curveFitting=1;jiggle=2;fillColor=#d5e8d4;strokeColor=#82b366;" vertex="1" parent="I2vAZ1yeuEtwXwnU4CiW-69">
          <mxGeometry x="200" y="80" width="100" height="40" as="geometry" />
        </mxCell>
        <mxCell id="I2vAZ1yeuEtwXwnU4CiW-72" style="edgeStyle=orthogonalEdgeStyle;rounded=0;orthogonalLoop=1;jettySize=auto;html=1;exitX=0.5;exitY=1;exitDx=0;exitDy=0;" edge="1" parent="I2vAZ1yeuEtwXwnU4CiW-69" source="I2vAZ1yeuEtwXwnU4CiW-70" target="I2vAZ1yeuEtwXwnU4CiW-70">
          <mxGeometry relative="1" as="geometry" />
        </mxCell>
        <mxCell id="I2vAZ1yeuEtwXwnU4CiW-75" style="edgeStyle=orthogonalEdgeStyle;rounded=0;orthogonalLoop=1;jettySize=auto;html=1;exitX=1;exitY=0.5;exitDx=0;exitDy=0;entryX=0;entryY=0.5;entryDx=0;entryDy=0;sketch=1;curveFitting=1;jiggle=2;" edge="1" parent="1" source="I2vAZ1yeuEtwXwnU4CiW-70" target="I2vAZ1yeuEtwXwnU4CiW-68">
          <mxGeometry relative="1" as="geometry" />
        </mxCell>
        <mxCell id="I2vAZ1yeuEtwXwnU4CiW-76" value="状态双写" style="edgeLabel;html=1;align=center;verticalAlign=middle;resizable=0;points=[];" vertex="1" connectable="0" parent="I2vAZ1yeuEtwXwnU4CiW-75">
          <mxGeometry relative="1" as="geometry">
            <mxPoint as="offset" />
          </mxGeometry>
        </mxCell>
        <mxCell id="I2vAZ1yeuEtwXwnU4CiW-77" style="edgeStyle=orthogonalEdgeStyle;rounded=0;orthogonalLoop=1;jettySize=auto;html=1;exitX=0.25;exitY=1;exitDx=0;exitDy=0;entryX=0.577;entryY=0.017;entryDx=0;entryDy=0;entryPerimeter=0;sketch=1;curveFitting=1;jiggle=2;" edge="1" parent="1" source="I2vAZ1yeuEtwXwnU4CiW-65" target="I2vAZ1yeuEtwXwnU4CiW-70">
          <mxGeometry relative="1" as="geometry" />
        </mxCell>
        <mxCell id="I2vAZ1yeuEtwXwnU4CiW-78" value="作业定义" style="edgeLabel;html=1;align=center;verticalAlign=middle;resizable=0;points=[];" vertex="1" connectable="0" parent="I2vAZ1yeuEtwXwnU4CiW-77">
          <mxGeometry relative="1" as="geometry">
            <mxPoint as="offset" />
          </mxGeometry>
        </mxCell>
        <mxCell id="I2vAZ1yeuEtwXwnU4CiW-79" style="edgeStyle=orthogonalEdgeStyle;rounded=0;orthogonalLoop=1;jettySize=auto;html=1;exitX=0.75;exitY=1;exitDx=0;exitDy=0;entryX=0.445;entryY=0.008;entryDx=0;entryDy=0;entryPerimeter=0;sketch=1;curveFitting=1;jiggle=2;" edge="1" parent="1" source="I2vAZ1yeuEtwXwnU4CiW-65" target="I2vAZ1yeuEtwXwnU4CiW-68">
          <mxGeometry relative="1" as="geometry" />
        </mxCell>
        <mxCell id="I2vAZ1yeuEtwXwnU4CiW-80" value="作业定义/状态" style="edgeLabel;html=1;align=center;verticalAlign=middle;resizable=0;points=[];" vertex="1" connectable="0" parent="I2vAZ1yeuEtwXwnU4CiW-79">
          <mxGeometry relative="1" as="geometry">
            <mxPoint as="offset" />
          </mxGeometry>
        </mxCell>
        <mxCell id="I2vAZ1yeuEtwXwnU4CiW-81" style="edgeStyle=orthogonalEdgeStyle;rounded=0;orthogonalLoop=1;jettySize=auto;html=1;exitX=0.5;exitY=1;exitDx=0;exitDy=0;entryX=0.75;entryY=0;entryDx=0;entryDy=0;sketch=1;curveFitting=1;jiggle=2;" edge="1" parent="1" source="I2vAZ1yeuEtwXwnU4CiW-65" target="I2vAZ1yeuEtwXwnU4CiW-70">
          <mxGeometry relative="1" as="geometry" />
        </mxCell>
        <mxCell id="I2vAZ1yeuEtwXwnU4CiW-82" value="日志同步" style="edgeLabel;html=1;align=center;verticalAlign=middle;resizable=0;points=[];" vertex="1" connectable="0" parent="I2vAZ1yeuEtwXwnU4CiW-81">
          <mxGeometry x="0.0273" y="2" relative="1" as="geometry">
            <mxPoint as="offset" />
          </mxGeometry>
        </mxCell>
      </root>
    </mxGraphModel>
  </diagram>
</mxfile>
